<?xml version="1.0" encoding="utf-8"?>
<!-- Generator: Adobe Illustrator 27.5.0, SVG Export Plug-In . SVG Version: 6.00 Build 0)  -->
<svg version="1.1" id="Layer_1" xmlns="http://www.w3.org/2000/svg" xmlns:xlink="http://www.w3.org/1999/xlink" x="0px" y="0px"
	 viewBox="0 0 2000 2000" style="enable-background:new 0 0 2000 2000;" xml:space="preserve">
<g>
	<g>
		<path style="fill:#38083A;" d="M659.301,449.792c111.244-115.572,275.366-166.655,432.945-163.278
			c148.396,3.272,298.27,53.406,410.358,152.407c151.14,131.72,235.47,329.511,248.347,527.618
			c6.86,124.965-8.443,259.957-85.28,363.18c-72.509,101.956-198.424,155.573-321.701,153.251
			c0.633,31.875,2.744,65.649-11.504,95.307c-19.104,44.012-64.171,78.103-113.355,76.203
			c-34.724,0.211-64.382-19.631-91.402-38.946c-12.876,32.402-33.352,64.805-67.549,77.47
			c-40.213,18.048-86.336,7.599-122.01-15.621c-16.887,25.014-35.674,52.456-66.282,61.322
			c-44.962,12.876-94.885-2.005-128.237-33.985c-67.76-60.477-101.112-151.457-105.756-240.642
			c-75.253-6.544-147.763-45.49-184.281-113.355c-65.966-119.793-63.116-263.018-53.722-395.582
			c4.75-81.903,43.379-159.9,107.972-210.984C507.422,627.846,582.57,529.795,659.301,449.792z M822.263,422.35
			C717.879,480.611,634.71,576.657,590.275,687.373c45.384-18.47,94.357-27.336,143.435-23.853
			c14.46-1.478,27.019,5.172,36.73,15.621c-93.935,37.785-176.26,99.951-246.764,171.932
			c-30.925,29.869-45.595,71.876-47.706,114.199c-7.072,99.634-9.288,202.752,21.848,298.903
			c17.309,52.984,54.989,107.339,113.566,117.471c89.291,16.465,179.426-4.644,266.395-23.748
			c-4.644,16.043-9.71,33.669-24.697,43.484c-40.635,32.402-89.819,51.4-138.264,68.393c3.061,47.917,18.259,93.829,41.796,135.731
			c18.365,21.32,35.252,45.912,61.322,58.788c16.887,6.649,42.429,5.172,49.289-15.093c16.465-47.179,3.8-97.734,1.583-146.074
			c8.76-29.025,51.611-37.152,67.971-10.343c11.399,29.236,13.299,61.321,20.687,91.718c15.832,27.547,49.184,59.527,81.692,35.252
			c36.624-39.896,21.426-101.323,14.037-149.557c4.011-28.18,35.252-49.289,60.266-29.552
			c24.275,27.758,19.104,71.559,47.073,98.051c16.887,20.792,38.84,44.118,68.499,41.162c41.057-10.871,47.284-61.005,38.524-96.046
			c-8.444-30.925-14.354-67.127-41.69-87.286c-30.608-2.744-60.794-9.499-89.08-21.32c-20.265-8.971-45.49-16.782-51.295-41.057
			c41.268-1.161,83.064-2.639,123.065-14.46c38.207-10.871,83.275-22.059,103.434-60.266
			c39.896-69.026,50.556-151.562,44.329-229.982c-3.166-49.606-13.51-98.895-10.132-148.607
			c-0.211-16.782,9.499-30.397,19.526-42.64c32.297,89.608,47.39,185.126,86.969,272.411
			c19.209,39.052,36.096,104.278,92.457,95.518c55.2-16.359,84.964-72.087,110.822-119.266
			c34.196-59.527,21.003-130.559,11.399-194.73c-11.082-52.561-18.681-108.078-48.762-153.779
			c-2.216-12.032-5.699-23.642-10.238-34.724c-67.127-149.24-197.474-273.15-357.164-316.212
			C1110.4,347.202,953.666,355.646,822.263,422.35z"/>
	</g>
	<g>
		<path style="fill:#38083A;" d="M1118.21,772.654c56.467-16.359,113.355,19.42,141.958,66.81
			c53.406,86.441,55.094,198.741,16.993,291.409c-15.832,38.946-30.819,86.019-72.826,104.173
			c-54.778,27.653-121.904,0.528-155.256-47.39c-52.139-76.414-69.448-175.099-48.762-265.128
			C1014.671,859.517,1050.239,789.541,1118.21,772.654z M1115.994,918.2c-16.254,19.315-12.349,47.284-10.132,70.715
			c3.8,20.581,12.349,48.551,38.524,46.756c29.13-24.592,21.109-69.554,8.971-101.006
			C1149.24,919.783,1129.398,906.273,1115.994,918.2z"/>
	</g>
	<g>
		<path style="fill:#38083A;" d="M663.207,824.37c46.44-17.626,99.529,1.794,131.509,37.68
			c56.572,61.638,72.826,149.663,67.971,230.932c-1.055,66.493-19.209,138.264-70.715,184.07
			c-34.196,32.191-92.985,33.458-127.92,1.9c-104.384-77.048-135.625-224.81-96.573-344.498
			C582.254,886.959,615.923,842.735,663.207,824.37z M652.441,939.731c-36.096,31.452-23.114,108.078,28.18,114.727
			c39.685,3.483,57.416-46.018,46.651-77.998C720.94,945.114,681.255,916.828,652.441,939.731z"/>
	</g>
	<path style="fill:#38083A;" d="M917.253,1151.243c29.658-11.504,54.25,14.671,69.871,36.519
		c25.436,36.835,50.45,81.164,39.896,127.709c-2.427,27.019-18.787,62.799-51.084,59.633c-34.408,6.227-61.533-18.787-81.797-42.746
		C849.493,1280.641,860.786,1189.344,917.253,1151.243z"/>
	<g>
		<path style="fill:#FDE3FE;" d="M822.263,422.35c131.403-66.704,288.137-75.148,428.934-34.935
			c159.689,43.062,290.037,166.972,357.164,316.212c4.538,11.082,8.021,22.692,10.238,34.724
			c25.12,143.858-47.073,291.409-165.916,372.257c-39.579-87.286-54.672-182.804-86.969-272.411
			c-10.027,12.243-19.737,25.858-19.526,42.64c-3.377,49.712,6.966,99.001,10.132,148.607c6.227,78.42-4.433,160.956-44.329,229.982
			c-20.159,38.207-65.227,49.395-103.434,60.266c-40.001,11.821-81.797,13.299-123.065,14.46
			c5.805,24.275,31.03,32.086,51.295,41.057c28.286,11.821,58.472,18.576,89.08,21.32c3.166,35.991,17.309,77.048-5.488,109.767
			c-12.349,21.32-38.418,25.542-59.844,32.402c-27.969-26.492-22.798-70.293-47.073-98.051
			c-25.014-19.737-56.255,1.372-60.266,29.552c-18.154,47.917-54.25,85.491-95.729,114.305
			c-7.388-30.397-9.288-62.483-20.687-91.718c-16.359-26.808-59.211-18.682-67.971,10.343c-15.726,53.3-66.81,78.42-112.194,102.378
			c-23.536-41.901-38.735-87.813-41.796-135.731c48.445-16.993,97.629-35.991,138.264-68.393
			c14.987-9.816,20.053-27.442,24.697-43.484c-86.969,19.104-177.104,40.213-266.395,23.748
			c-58.577-10.132-96.257-64.488-113.566-117.471c-31.136-96.151-28.919-199.269-21.848-298.903
			c2.111-42.323,16.782-84.33,47.706-114.199c70.504-71.982,152.829-134.147,246.764-171.932
			c-9.71-10.449-22.27-17.098-36.73-15.621c-49.078-3.483-98.051,5.383-143.435,23.853
			C634.71,576.657,717.879,480.611,822.263,422.35z M1118.21,772.654c-67.971,16.887-103.539,86.863-117.893,149.874
			c-20.687,90.03-3.377,188.714,48.762,265.128c33.352,47.917,100.479,75.042,155.256,47.39
			c42.007-18.154,56.994-65.227,72.826-104.173c38.102-92.668,36.413-204.968-16.993-291.409
			C1231.565,792.074,1174.677,756.294,1118.21,772.654z M663.207,824.37c-47.284,18.365-80.953,62.588-95.729,110.083
			c-39.052,119.688-7.81,267.45,96.573,344.498c34.935,31.558,93.724,30.291,127.92-1.9c51.506-45.806,69.66-117.577,70.715-184.07
			c4.855-81.27-11.399-169.294-67.971-230.932C762.735,826.165,709.646,806.745,663.207,824.37z M917.253,1151.243
			c-56.466,38.102-67.76,129.398-23.114,181.115c20.265,23.959,47.39,48.973,81.797,42.746
			c32.297,3.166,48.656-32.613,51.084-59.633c10.554-46.545-14.46-90.874-39.896-127.709
			C971.503,1165.913,946.911,1139.738,917.253,1151.243z"/>
	</g>
	<path style="fill:#FDE3FE;" d="M1115.994,918.2c13.404-11.927,33.247,1.583,37.363,16.465
		c12.138,31.452,20.159,76.414-8.971,101.006c-26.175,1.794-34.724-26.175-38.524-46.756
		C1103.645,965.484,1099.74,937.515,1115.994,918.2z"/>
	<path style="fill:#FDE3FE;" d="M652.441,939.731c28.814-22.903,68.499,5.383,74.831,36.73c10.766,31.98-6.966,81.481-46.651,77.998
		C629.327,1047.809,616.345,971.183,652.441,939.731z"/>
	<path style="fill:#861E8A;" d="M1618.598,738.351c30.08,45.701,37.68,101.217,48.762,153.779
		c9.605,64.171,22.798,135.203-11.399,194.73c-25.859,47.179-55.622,102.906-110.822,119.266
		c-56.361,8.76-73.248-56.466-92.457-95.518C1571.525,1029.761,1643.718,882.209,1618.598,738.351z"/>
	<path style="fill:#861E8A;" d="M1225.866,1396.529c27.336,20.159,33.247,56.361,41.69,87.286
		c8.76,35.041,2.533,85.175-38.524,96.046c-29.658,2.955-51.611-20.37-68.499-41.162c21.426-6.86,47.495-11.082,59.844-32.402
		C1243.175,1473.577,1229.032,1432.52,1225.866,1396.529z"/>
	<path style="fill:#861E8A;" d="M957.466,1584.504c41.479-28.814,77.575-66.388,95.729-114.305
		c7.388,48.234,22.587,109.661-14.037,149.557C1006.649,1644.031,973.297,1612.051,957.466,1584.504z"/>
	<path style="fill:#861E8A;" d="M756.614,1605.508c45.384-23.959,96.468-49.078,112.194-102.378
		c2.216,48.339,14.882,98.895-1.583,146.074c-6.86,20.265-32.402,21.742-49.289,15.093
		C791.866,1651.42,774.979,1626.828,756.614,1605.508z"/>
</g>
</svg>
